<svg width="75" height="54" viewBox="0 0 75 54" fill="none" xmlns="http://www.w3.org/2000/svg">
<path d="M55.1851 54C53.1076 54 51.2967 52.9001 50.3339 51.0596L38.2615 27.9147C35.1471 21.9488 35.373 14.9498 38.8614 9.19499C42.3498 3.44023 48.4526 0.00366211 55.1814 0.00366211C61.9101 0.00366211 68.0129 3.44023 71.5013 9.19499C74.9897 14.9498 75.2156 21.9488 72.1013 27.9147L60.0288 51.0596C59.0697 52.9001 57.2551 54 55.1814 54H55.1851ZM55.1851 1.48494C48.9785 1.48494 43.3496 4.65488 40.1316 9.96156C36.9135 15.2719 36.7061 21.7266 39.5761 27.2296L51.6485 50.3745C52.3484 51.7151 53.6704 52.5187 55.1851 52.5187C56.6997 52.5187 58.0217 51.7188 58.7216 50.3745L70.794 27.2296C73.664 21.7266 73.4566 15.2682 70.2385 9.96156C67.0205 4.65117 61.3916 1.48494 55.1851 1.48494Z" fill="black"/>
<path d="M15.6576 32.1623C15.0206 33.3843 13.7689 34.1398 12.3951 34.1398C11.0212 34.1398 9.76579 33.3806 9.13254 32.1623L1.61876 17.7679C-0.362453 13.9685 -0.218028 9.51351 2.00019 5.85105C4.2221 2.18859 8.10676 0 12.3914 0C16.676 0 20.5606 2.18859 22.7825 5.85105C25.0044 9.51351 25.1452 13.9685 23.164 17.7679L15.6576 32.1623ZM12.3951 1.48128C8.63261 1.48128 5.22197 3.40324 3.27409 6.61761C1.3225 9.83569 1.19659 13.7463 2.93709 17.0828L10.4435 31.4772C10.8286 32.2178 11.5581 32.6585 12.3951 32.6585C13.232 32.6585 13.9578 32.2178 14.3466 31.4772L21.853 17.0828C23.5935 13.7463 23.4676 9.83569 21.516 6.61761C19.5644 3.39953 16.1538 1.48128 12.3951 1.48128Z" fill="black"/>
<path d="M12.3909 17.7309C9.05067 17.7309 6.33252 15.0127 6.33252 11.6724C6.33252 8.33216 9.05067 5.61401 12.3909 5.61401C12.7983 5.61401 13.1316 5.9473 13.1316 6.35465C13.1316 6.762 12.7983 7.09529 12.3909 7.09529C9.86537 7.09529 7.8138 9.14686 7.8138 11.6724C7.8138 14.198 9.86537 16.2496 12.3909 16.2496C14.9165 16.2496 16.9681 14.198 16.9681 11.6724C16.9681 11.2651 17.3014 10.9318 17.7087 10.9318C18.1161 10.9318 18.4494 11.2651 18.4494 11.6724C18.4494 15.0127 15.7312 17.7309 12.3909 17.7309ZM48.0786 53.9963H12.7835C11.0578 53.9963 9.4395 53.326 8.22115 52.1113C7.0028 50.8893 6.33252 49.271 6.33252 47.5527C6.33252 43.9976 9.22472 41.1017 12.7835 41.1017H29.0701C30.0033 41.1017 30.8773 40.7388 31.5328 40.0834C31.857 39.7607 32.114 39.3769 32.2889 38.9541C32.4637 38.5314 32.5528 38.0782 32.5511 37.6207C32.5511 35.7025 30.9884 34.1434 29.0664 34.1434H18.4642C18.0568 34.1434 17.7236 33.8101 17.7236 33.4028C17.7236 32.9954 18.0568 32.6622 18.4642 32.6622H29.0664C31.8031 32.6622 34.0324 34.8878 34.0324 37.6207C34.0324 38.9465 33.5177 40.1945 32.5771 41.1314C32.1171 41.5936 31.5699 41.96 30.9673 42.2092C30.3647 42.4584 29.7186 42.5855 29.0664 42.583H12.7798C10.0394 42.583 7.81009 44.8123 7.81009 47.5527C7.81009 48.8747 8.32854 50.1227 9.26545 51.0633C10.2024 52.0002 11.4503 52.515 12.7798 52.515H48.0749C48.4823 52.515 48.8156 52.8483 48.8156 53.2556C48.8156 53.663 48.4823 53.9963 48.0749 53.9963H48.0786Z" fill="#943FA2"/>
<path d="M45.894 18.3198C45.894 23.4413 50.0601 27.6111 55.1854 27.6111C60.3069 27.6111 64.4767 23.445 64.4767 18.3198C64.4767 17.9124 64.1434 17.5791 63.736 17.5791C63.3287 17.5791 62.9954 17.9124 62.9954 18.3198C62.9954 22.6266 59.4922 26.1298 55.1854 26.1298C50.8785 26.1298 47.3753 22.6266 47.3753 18.3198C47.3753 14.0129 50.8785 10.5097 55.1854 10.5097C55.5927 10.5097 55.926 10.1764 55.926 9.76908C55.926 9.36173 55.5927 9.02844 55.1854 9.02844C50.0638 9.02844 45.894 13.1982 45.894 18.3198Z" fill="#943FA2"/>
</svg>
